<?xml version="1.0" standalone="no"?><!DOCTYPE svg PUBLIC "-//W3C//DTD SVG 1.1//EN" "http://www.w3.org/Graphics/SVG/1.1/DTD/svg11.dtd"><svg t="1756805331494" class="icon" viewBox="0 0 1024 1024" version="1.1" xmlns="http://www.w3.org/2000/svg" p-id="7073" xmlns:xlink="http://www.w3.org/1999/xlink" width="200" height="200"><path d="M746.602 0.118H106.75v1023.764h810.5V170.734z" fill="#E6E9ED" p-id="7074"></path><path d="M234.72 341.368l97.508-162.51 97.51 162.51z" fill="#4A89DC" p-id="7075"></path><path d="M315.982 341.368l130.002-227.51 130 227.51z" fill="#5D9CEC" p-id="7076"></path><path d="M767.942 597.292H256.058c-11.78 0-21.338-9.53-21.338-21.308 0-11.808 9.558-21.338 21.338-21.338H767.94c11.778 0 21.338 9.53 21.338 21.338 0.002 11.78-9.56 21.308-21.336 21.308zM767.942 725.264H256.058c-11.78 0-21.338-9.53-21.338-21.306 0-11.81 9.558-21.34 21.338-21.34H767.94a21.328 21.328 0 0 1 21.338 21.34c0.002 11.776-9.56 21.306-21.336 21.306zM533.338 853.234h-277.28c-11.78 0-21.338-9.53-21.338-21.308 0-11.808 9.558-21.338 21.338-21.338h277.28c11.78 0 21.306 9.53 21.306 21.338 0 11.78-9.526 21.308-21.306 21.308z" fill="#434A54" p-id="7077"></path><path d="M746.602 0.118v170.616h170.648z" fill="#CCD1D9" p-id="7078"></path></svg>